{"title":"King Alfred and the Anglo Saxons [WEBRIP - BBC iPlayer]","uid":8841210,"size":1158100362,"categoryP":"video","categoryS":"tv_shows","magnet":"?xt=urn:btih:e4522dbaac9c7f1e41bf5df2bf0cf4e30beb9c62&amp;dn=King+Alfred+and+the+Anglo+Saxons+%5BWEBRIP+-+BBC+iPlayer%5D&amp;tr=udp%3A%2F%2Ftracker.openbittorrent.com%3A80&amp;tr=udp%3A%2F%2Fopen.demonii.com%3A1337&amp;tr=udp%3A%2F%2Ftracker.coppersurfer.tk%3A6969&amp;tr=udp%3A%2F%2Fexodus.desync.com%3A6969","seeders":1,"leechers":0,"uploader":"infidelwarez","files":3,"time":1377250379,"description":"King Alfred and the Anglo Saxons\n\nMichael Wood argues that the most important and influential British kings were a father, son and grandson who lived over a thousand years ago during the age of the Vikings.\n &lt;a href=&quot;\nhttp://www.bbc.co.uk/programmes/b038118n&quot; rel=&quot;nofollow&quot; target=&quot;_NEW&quot;&gt;\nhttp://www.bbc.co.uk/programmes/b038118n&lt;/a&gt;\n\n\nS01E01 Alfred of Wessex\n\nKing Alfred the Great fights a desperate guerrilla war in the marshes of Somerset - burning the cakes on the way- before his decisive victory at Edington. Creating towns, trade and coinage, reviving learning and literacy, Alfred then laid the foundations of a single kingdom of 'all the English'. Filmed on location from Reading to Rome, using original texts read in Old English, and interviews with leading scholars, Michael Wood describes a man who was 'not just the greatest Briton, but one of the greatest rulers of any time or place'.\n\nFormat                                   : MPEG-4\nFormat profile                           : Base Media\nCodec ID                                 : isom\nFile size                                : 368 MiB\nDuration                                 : 59mn 6s\nOverall bit rate mode                    : Variable\nOverall bit rate                         : 872 Kbps\nWriting application                      : Lavf54.6.101\n\nVideo\nID                                       : 1\nFormat                                   : AVC\nFormat/Info                              : Advanced Video Codec\nFormat profile                           : &lt;a class=&quot;__cf_email__&quot; href=&quot;/cdn-cgi/l/email-protection&quot; data-cfemail=&quot;430e222a2d030f706d73&quot;&gt;[email&amp;#160;protected]&lt;/a&gt;&lt;script cf-hash='f9e31' type=&quot;text/javascript&quot;&gt;\n/* &lt;![CDATA[ */!function(){try{var t=&quot;currentScript&quot;in document?document.currentScript:function(){for(var t=document.getElementsByTagName(&quot;script&quot;),e=t.length;e--;)if(t[e].getAttribute(&quot;cf-hash&quot;))return t[e]}();if(t&amp;&amp;t.previousSibling){var e,r,n,i,c=t.previousSibling,a=c.getAttribute(&quot;data-cfemail&quot;);if(a){for(e=&quot;&quot;,r=parseInt(a.substr(0,2),16),n=2;a.length-n;n+=2)i=parseInt(a.substr(n,2),16)^r,e+=String.fromCharCode(i);e=document.createTextNode(e),c.parentNode.replaceChild(e,c)}}}catch(u){}}();/* ]]&gt; */&lt;/script&gt;\nFormat settings, CABAC                   : Yes\nFormat settings, ReFrames                : 4 frames\nCodec ID                                 : avc1\nCodec ID/Info                            : Advanced Video Coding\nDuration                                 : 59mn 6s\nBit rate mode                            : Constant\nBit rate                                 : 700 Kbps\nWidth                                    : 640 pixels\nHeight                                   : 360 pixels\nDisplay aspect ratio                     : 16:9\nFrame rate mode                          : Constant\nFrame rate                               : 25.000 fps\nStandard                                 : PAL\nColor space                              : YUV\nChroma subsampling                       : 4:2:0\nBit depth                                : 8 bits\nScan type                                : Progressive\nBits/(Pixel*Frame)                       : 0.122\nStream size                              : 295 MiB (80%)\n\nAudio\nID                                       : 2\nFormat                                   : AAC\nFormat/Info                              : Advanced Audio Codec\nFormat profile                           : LC\nCodec ID                                 : 40\nDuration                                 : 59mn 6s\nBit rate mode                            : Variable\nBit rate                                 : 165 Kbps\nMaximum bit rate                         : 192 Kbps\nChannel(s)                               : 2 channels\nChannel positions                        : Front: L R\nSampling rate                            : 48.0 KHz\nCompression mode                         : Lossy\nStream size                              : 69.9 MiB (19%)\n\n\n\nS01E02 The Lady of the Mercians\n\nIn this second episode, Alfred's children continue the family plan to create a kingdom of all the English.\n\nMichael Wood recovers the story of Alfred's daughter Aethelflaed, the ruler of Mercia, from a copy of a lost chronicle written in Mercia in her lifetime which in the film we hear read in Old English. One of the great forgotten figures in British history, Aethelflaed led armies, built fortresses, campaigned against the Vikings and was a brilliant diplomat. Her fame spread across the British Isles, beloved by her warriors and her people, she was known simply as 'the Lady of the Mercians'. Without her, concludes Michael Wood, 'England might never have happened'.\n\nFormat                                   : MPEG-4\nFormat profile                           : Base Media\nCodec ID                                 : isom\nFile size                                : 368 MiB\nDuration                                 : 59mn 4s\nOverall bit rate mode                    : Variable\nOverall bit rate                         : 871 Kbps\nWriting application                      : Lavf54.6.101\n\nVideo\nID                                       : 1\nFormat                                   : AVC\nFormat/Info                              : Advanced Video Codec\nFormat profile                           : &lt;a class=&quot;__cf_email__&quot; href=&quot;/cdn-cgi/l/email-protection&quot; data-cfemail=&quot;da97bbb3b49a96e9f4ea&quot;&gt;[email&amp;#160;protected]&lt;/a&gt;&lt;script cf-hash='f9e31' type=&quot;text/javascript&quot;&gt;\n/* &lt;![CDATA[ */!function(){try{var t=&quot;currentScript&quot;in document?document.currentScript:function(){for(var t=document.getElementsByTagName(&quot;script&quot;),e=t.length;e--;)if(t[e].getAttribute(&quot;cf-hash&quot;))return t[e]}();if(t&amp;&amp;t.previousSibling){var e,r,n,i,c=t.previousSibling,a=c.getAttribute(&quot;data-cfemail&quot;);if(a){for(e=&quot;&quot;,r=parseInt(a.substr(0,2),16),n=2;a.length-n;n+=2)i=parseInt(a.substr(n,2),16)^r,e+=String.fromCharCode(i);e=document.createTextNode(e),c.parentNode.replaceChild(e,c)}}}catch(u){}}();/* ]]&gt; */&lt;/script&gt;\nFormat settings, CABAC                   : Yes\nFormat settings, ReFrames                : 4 frames\nCodec ID                                 : avc1\nCodec ID/Info                            : Advanced Video Coding\nDuration                                 : 59mn 4s\nBit rate mode                            : Constant\nBit rate                                 : 700 Kbps\nWidth                                    : 640 pixels\nHeight                                   : 360 pixels\nDisplay aspect ratio                     : 16:9\nFrame rate mode                          : Constant\nFrame rate                               : 25.000 fps\nStandard                                 : PAL\nColor space                              : YUV\nChroma subsampling                       : 4:2:0\nBit depth                                : 8 bits\nScan type                                : Progressive\nBits/(Pixel*Frame)                       : 0.122\nStream size                              : 295 MiB (80%)\n\nAudio\nID                                       : 2\nFormat                                   : AAC\nFormat/Info                              : Advanced Audio Codec\nFormat profile                           : LC\nCodec ID                                 : 40\nDuration                                 : 59mn 4s\nBit rate mode                            : Variable\nBit rate                                 : 165 Kbps\nMaximum bit rate                         : 192 Kbps\nChannel(s)                               : 2 channels\nChannel positions                        : Front: L R\nSampling rate                            : 48.0 KHz\nCompression mode                         : Lossy\nStream size                              : 69.8 MiB (19%)\n\n\n\nS01E03 Aethelstan: The First King of England\n\nTravelling from Devon to Cumbria, Scotland and Rome, Michael Wood tells the tale of King Alfred's grandson Aethelstan's wars, his learning and his lawmaking, showing how he created a national coinage and tracing the origin of the English parliament to the king's new assembly politics. But there's also a dark side, with later legends that the king had his brother drowned at sea. In his last desperate struggle, Aethelstan defeated a huge invasion of Vikings and Scots in what became known as the Anglo-Saxon 'Great War'.\n\nWood argues that Aethelstan was one of the greatest English monarchs, and with his grandfather Alfred, his father Edward and his aunt Aethelflaed, a member of our most remarkable royal family and 'even more than the Tudors, the most gifted and influential rulers in British history'.\n\nFormat                                   : MPEG-4\nFormat profile                           : Base Media\nCodec ID                                 : isom\nFile size                                : 368 MiB\nDuration                                 : 59mn 0s\nOverall bit rate mode                    : Variable\nOverall bit rate                         : 872 Kbps\nWriting application                      : Lavf54.6.101\n\nVideo\nID                                       : 1\nFormat                                   : AVC\nFormat/Info                              : Advanced Video Codec\nFormat profile                           : &lt;a class=&quot;__cf_email__&quot; href=&quot;/cdn-cgi/l/email-protection&quot; data-cfemail=&quot;7e331f17103e324d504e&quot;&gt;[email&amp;#160;protected]&lt;/a&gt;&lt;script cf-hash='f9e31' type=&quot;text/javascript&quot;&gt;\n/* &lt;![CDATA[ */!function(){try{var t=&quot;currentScript&quot;in document?document.currentScript:function(){for(var t=document.getElementsByTagName(&quot;script&quot;),e=t.length;e--;)if(t[e].getAttribute(&quot;cf-hash&quot;))return t[e]}();if(t&amp;&amp;t.previousSibling){var e,r,n,i,c=t.previousSibling,a=c.getAttribute(&quot;data-cfemail&quot;);if(a){for(e=&quot;&quot;,r=parseInt(a.substr(0,2),16),n=2;a.length-n;n+=2)i=parseInt(a.substr(n,2),16)^r,e+=String.fromCharCode(i);e=document.createTextNode(e),c.parentNode.replaceChild(e,c)}}}catch(u){}}();/* ]]&gt; */&lt;/script&gt;\nFormat settings, CABAC                   : Yes\nFormat settings, ReFrames                : 4 frames\nCodec ID                                 : avc1\nCodec ID/Info                            : Advanced Video Coding\nDuration                                 : 59mn 0s\nBit rate mode                            : Constant\nBit rate                                 : 700 Kbps\nWidth                                    : 640 pixels\nHeight                                   : 360 pixels\nDisplay aspect ratio                     : 16:9\nFrame rate mode                          : Constant\nFrame rate                               : 25.000 fps\nStandard                                 : PAL\nColor space                              : YUV\nChroma subsampling                       : 4:2:0\nBit depth                                : 8 bits\nScan type                                : Progressive\nBits/(Pixel*Frame)                       : 0.122\nStream size                              : 295 MiB (80%)\n\nAudio\nID                                       : 2\nFormat                                   : AAC\nFormat/Info                              : Advanced Audio Codec\nFormat profile                           : LC\nCodec ID                                 : 40\nDuration                                 : 59mn 0s\nBit rate mode                            : Variable\nBit rate                                 : 165 Kbps\nMaximum bit rate                         : 192 Kbps\nChannel(s)                               : 2 channels\nChannel positions                        : Front: L R\nSampling rate                            : 48.0 KHz\nCompression mode                         : Lossy\nStream size                              : 69.8 MiB (19%)\n\n\n","torrent":{"xt":"urn:btih:e4522dbaac9c7f1e41bf5df2bf0cf4e30beb9c62","amp;dn":"King+Alfred+and+the+Anglo+Saxons+%5BWEBRIP+-+BBC+iPlayer%5D","amp;tr":["udp%3A%2F%2Ftracker.openbittorrent.com%3A80","udp%3A%2F%2Fopen.demonii.com%3A1337","udp%3A%2F%2Ftracker.coppersurfer.tk%3A6969","udp%3A%2F%2Fexodus.desync.com%3A6969"],"infoHash":"e4522dbaac9c7f1e41bf5df2bf0cf4e30beb9c62","infoHashBuffer":{"type":"Buffer","data":[228,82,45,186,172,156,127,30,65,191,93,242,191,12,244,227,11,235,156,98]},"announce":[],"urlList":[]}}